<?xml version="1.0" encoding="UTF-8"?>
<svg width="41px" height="52px" viewBox="0 0 41 52" version="1.1" xmlns="http://www.w3.org/2000/svg" xmlns:xlink="http://www.w3.org/1999/xlink">
    <!-- Generator: Sketch 51.3 (57544) - http://www.bohemiancoding.com/sketch -->
    <title>icon</title>
    <desc>Created with Sketch.</desc>
    <defs></defs>
    <g id="🛠--Symbols-&amp;-Components" stroke="none" stroke-width="1" fill="none" fill-rule="evenodd">
        <g id="Organisms-/-Price-/-v10---Title+icon+Content+$+Button" transform="translate(-160.000000, -129.000000)">
            <g id="#1-Basic">
                <g id="icon" transform="translate(130.000000, 107.000000)">
                    <g id="Atoms-/-Icon/illustrated/-User" transform="translate(0.000000, 0.615385)">
                        <rect id="Rectangle-5" x="0" y="0" width="100" height="95"></rect>
                        <g id="003-man" stroke-width="1" fill-rule="evenodd" transform="translate(30.000000, 21.850000)">
                            <path d="M29.2216111,12.4951564 C25.1833958,8.67463549 16.7344062,9.40501533 13.2889826,9.89646951 C12.2037639,10.051219 11.4162222,10.9200518 11.4162222,11.9623549 L11.4162222,14.2895231 C11.4162222,14.8473755 11.8942708,15.2996372 12.4839306,15.2996372 C13.0735903,15.2996372 13.5516389,14.8473755 13.5516389,14.2895231 L13.5516389,11.9622202 C13.5516389,11.9278763 13.5755556,11.8985157 13.6074444,11.8939365 C14.9835069,11.697705 17.7147049,11.3949401 20.5439896,11.5733936 C23.8735312,11.7830933 26.2849861,12.5738106 27.7117292,13.9235924 C28.1287049,14.3180757 28.8047778,14.3180757 29.2216111,13.9235924 C29.6385868,13.5291092 29.6385868,12.8893703 29.2216111,12.4951564 Z" id="Shape" fill="#404F54" fill-rule="nonzero"></path>
                            <path d="M37.241809,37.1467892 L30.6725556,34.8868272 C30.6949063,34.6089785 30.5958229,34.3264159 30.3815694,34.1134839 L28.3926424,32.1366232 L28.3926424,28.8180617 C28.6029097,28.6541538 28.8101875,28.4858015 29.011059,28.307752 C31.5201736,26.0826727 32.9591597,22.9414871 32.9591597,19.6893238 L32.9591597,17.0390537 C33.7168056,15.4793028 34.1007535,13.8286417 34.1007535,12.1289564 L34.1007535,1.32854697 C34.1007535,0.770694617 33.6227049,0.318432861 33.0330451,0.318432861 L17.0504479,0.318432861 C11.4257604,0.318432861 6.84984722,4.64764725 6.84984722,9.96892837 L6.84984722,12.1289564 C6.84984722,13.8286417 7.23379514,15.4793028 7.99144097,17.0390537 L7.99144097,19.3193526 C7.99144097,23.0952939 9.76611458,26.4970888 12.5579583,28.7398115 L12.5579583,32.1363538 L10.5688889,34.1134839 C10.3546354,34.3264159 10.2555521,34.6089785 10.2779028,34.8868272 L3.70864931,37.1467892 C1.49037847,37.909762 0,39.9228521 0,42.1560124 L0,49.930524 C0,50.4883763 0.478048611,50.9406381 1.06770833,50.9406381 C1.65736806,50.9406381 2.13541667,50.4883763 2.13541667,49.930524 L2.13541667,42.1560124 C2.13541667,40.7693277 3.06090625,39.5190758 4.43853472,39.045265 L11.3646875,36.6624731 L14.2480694,40.7543781 C14.6166424,41.2773478 15.2072986,41.612975 15.8687083,41.674794 C15.942309,41.6816628 16.0157674,41.6851645 16.0887986,41.6851645 C16.6721944,41.6851645 17.2309618,41.4679227 17.6486493,41.0729007 L19.4078056,39.4086367 L19.4078056,49.930524 C19.4078056,50.4883763 19.8858542,50.9406381 20.4755139,50.9406381 C21.0651736,50.9406381 21.5432222,50.4883763 21.5432222,49.930524 L21.5432222,39.4086367 L23.3023785,41.0729007 C23.7199236,41.4680573 24.278691,41.6851645 24.8622292,41.6851645 C24.9352604,41.6851645 25.0087188,41.6817975 25.0823194,41.674794 C25.7437292,41.612975 26.3342431,41.2773478 26.7029583,40.7542434 L29.5863403,36.6624731 L36.5124931,39.045265 C37.8899792,39.5192105 38.8156111,40.7693277 38.8156111,42.1560124 L38.8156111,49.930524 C38.8156111,50.4883763 39.2936597,50.9406381 39.8833194,50.9406381 C40.4729792,50.9406381 40.9510278,50.4883763 40.9510278,49.930524 L40.9510278,42.1560124 C40.9504583,39.9228521 39.4600799,37.909762 37.241809,37.1467892 Z M10.1267153,19.3193526 L10.1267153,16.8131922 C10.1267153,16.6611364 10.0904132,16.5109661 10.0205139,16.3739946 C9.33347917,15.0279839 8.98512153,13.5996825 8.98512153,12.1290911 L8.98512153,9.96906305 C8.98512153,5.76173577 12.6032292,2.33879576 17.0503056,2.33879576 L31.9653368,2.33879576 L31.9653368,12.1290911 C31.9653368,13.5996825 31.6169792,15.0279839 30.9299444,16.3739946 C30.8600451,16.5109661 30.8237431,16.6611364 30.8237431,16.8131922 L30.8237431,19.6893238 C30.8237431,22.4248475 29.6613646,24.9621194 27.5507187,26.8337935 C25.4417812,28.7038514 22.6841042,29.6359847 19.7842083,29.458474 C14.3687917,29.1268872 10.1267153,24.6732268 10.1267153,19.3193526 Z M20.4752292,35.746367 L14.6932326,32.0073286 L14.6932326,30.1217823 C16.1894479,30.88691 17.8646111,31.3654348 19.6462604,31.4745271 C19.927566,31.4917664 20.2073056,31.5002513 20.4860486,31.5002513 C22.5276493,31.5002513 24.4925174,31.0385618 26.2572257,30.1621868 L26.2572257,32.0073286 L20.4752292,35.746367 Z" id="Shape" fill="#404F54" fill-rule="nonzero"></path>
                            <path d="M16.1384826,39.64433 C16.1310799,39.6513334 16.1139965,39.6672259 16.0789757,39.6643976 C16.0440972,39.6611652 16.0305729,39.6419057 16.0247361,39.6335554 L12.7041632,34.9213058 L13.7727257,33.8590698 L18.8101736,37.1166204 L16.1384826,39.64433 Z" id="Path" fill="#FF7F45"></path>
                            <path d="M24.9258646,39.6338248 C24.9200278,39.6421751 24.9065035,39.6614346 24.871625,39.664667 C24.8367465,39.6674953 24.8195208,39.6514681 24.8121181,39.6445994 L22.1404271,37.1170245 L27.177875,33.8594738 L28.2464375,34.9217098 L24.9258646,39.6338248 Z" id="Path" fill="#FF7F45"></path>
                            <path d="M7.91741319,44.6002192 C7.32775347,44.6002192 6.84970486,45.0524809 6.84970486,45.6103333 L6.84970486,49.930524 C6.84970486,50.4883763 7.32775347,50.9406381 7.91741319,50.9406381 C8.50707292,50.9406381 8.98512153,50.4883763 8.98512153,49.930524 L8.98512153,45.6103333 C8.98512153,45.0523462 8.50707292,44.6002192 7.91741319,44.6002192 Z" id="Shape" fill="#404F54" fill-rule="nonzero"></path>
                            <path d="M33.0330451,44.6002192 C32.4433854,44.6002192 31.9653368,45.0524809 31.9653368,45.6103333 L31.9653368,49.930524 C31.9653368,50.4883763 32.4433854,50.9406381 33.0330451,50.9406381 C33.6227049,50.9406381 34.1007535,50.4883763 34.1007535,49.930524 L34.1007535,45.6103333 C34.1007535,45.0523462 33.6227049,44.6002192 33.0330451,44.6002192 Z" id="Shape" fill="#404F54" fill-rule="nonzero"></path>
                        </g>
                    </g>
                </g>
            </g>
        </g>
    </g>
</svg>