<?xml version="1.0" encoding="UTF-8"?>
<svg width="76px" height="60px" viewBox="0 0 76 60" version="1.1" xmlns="http://www.w3.org/2000/svg" xmlns:xlink="http://www.w3.org/1999/xlink">
    <!-- Generator: Sketch 51.3 (57544) - http://www.bohemiancoding.com/sketch -->
    <title>Group 3</title>
    <desc>Created with Sketch.</desc>
    <defs></defs>
    <g id="🛠--Symbols-&amp;-Components" stroke="none" stroke-width="1" fill="none" fill-rule="evenodd">
        <g id="Atoms-/-Icon/illustrated/-User-(3)" transform="translate(-19.000000, -23.000000)">
            <g id="Group-3" transform="translate(19.000000, 23.000000)">
                <g id="Group" fill-rule="nonzero">
                    <g id="002-employees-copy">
                        <path d="M37.9742946,39.7389375 L34.5912187,39.7389375 C34.0919598,39.7389375 33.6872009,40.1436964 33.6872009,40.6429554 C33.6872009,41.1423348 34.0919598,41.5469732 34.5912187,41.5469732 L37.9742946,41.5469732 C38.4735536,41.5469732 38.8783125,41.1423348 38.8783125,40.6429554 C38.8783125,40.1436964 38.4735536,39.7389375 37.9742946,39.7389375 Z" id="Shape" fill="#1CABA0"></path>
                        <path d="M57.8870357,30.0608839 L52.9642366,28.1620848 L50.4543214,25.6521696 C50.2931652,25.4910134 50.0854821,25.4037455 49.8733393,25.390125 L49.8733393,23.3929688 C51.0562768,22.131683 51.8983393,20.5344643 52.2381295,18.7351071 C52.449067,18.7446295 52.6620536,18.7276339 52.8721473,18.6847232 C54.0749732,18.4384688 54.9480134,17.3224286 54.9480134,16.03125 L54.9480134,15.3720402 C54.9480134,14.6250804 54.6451071,13.9394732 54.151875,13.4492545 C54.950183,9.10755804 54.2926607,5.56935268 52.2418661,3.2011875 C50.2582098,0.910647321 47.0623259,-0.184178571 43.0001518,0.0355580357 C39.2471518,0.238419643 36.8243839,1.96521429 36.0568125,2.59694196 C35.636625,2.64684375 34.9208839,2.79437946 34.1964643,3.22903125 C33.1924018,3.83146875 31.9956027,5.09697321 31.9956027,7.70452232 C31.9956027,9.97927232 32.3591384,11.878433 32.6223884,12.9559018 C31.740067,13.3857321 31.1498036,14.3172321 31.1498036,15.3821652 L31.1498036,16.0311295 C31.1498036,17.322308 32.0228437,18.4383482 33.2256696,18.6846027 C33.4357634,18.7276339 33.6488705,18.7445089 33.8596875,18.7349866 C34.1994777,20.5343438 35.0416607,22.1315625 36.2244777,23.3928482 L36.2244777,25.3900045 C36.0123348,25.403625 35.8045312,25.4908929 35.6434955,25.6520491 L33.1335804,28.1619643 L28.2107812,30.0607634 C27.7849286,30.224933 27.3781205,30.4379196 27.001808,30.6935759 C26.5888527,30.974183 26.4815759,31.5363616 26.7620625,31.949317 C26.9369598,32.2067813 27.2213036,32.3453973 27.5105893,32.3453973 C27.6854866,32.3453973 27.862192,32.2946518 28.0178036,32.1890625 C28.2802098,32.0107902 28.5640714,31.8622902 28.861433,31.7475402 L33.4300982,29.985308 L36.9232232,35.2251161 C37.3561875,35.874683 38.0502321,36.291375 38.8270848,36.3682768 C38.9135089,36.3768348 38.999933,36.3810536 39.0857545,36.3810536 C39.5354732,36.3810536 39.9718125,36.262808 40.3580089,36.0442768 L39.6083973,53.0480089 C39.5863393,53.5467857 39.9728973,53.9690223 40.4717946,53.9909598 C40.9932321,53.9918036 41.3934107,53.6127187 41.4147455,53.1275625 L42.1104777,37.3444955 L43.9872188,37.3444955 L44.6829509,53.1275625 C44.7042857,53.6128393 45.1044643,53.9918036 45.5854018,53.9918036 C46.1246786,53.9690223 46.5112366,53.5467857 46.4892991,53.0480089 L45.7396875,36.0442768 C46.1258839,36.262808 46.5621027,36.3810536 47.011942,36.3810536 C47.0977634,36.3810536 47.1841875,36.3768348 47.2706116,36.3682768 C48.0474643,36.291375 48.7413884,35.874683 49.1744732,35.2251161 L52.6675982,29.985308 L57.2362634,31.7475402 C57.8770313,31.9946384 58.4286027,32.3889107 58.8622902,32.880817 L55.7366786,36.0064286 C54.6073795,37.1357277 53.9855357,38.6371205 53.9855357,40.2339777 L53.9855357,53.0879062 C53.9855357,53.5871652 54.3902946,53.9919241 54.8895536,53.9919241 C55.3888125,53.9919241 55.7935714,53.5871652 55.7935714,53.0879062 L55.7935714,40.2339777 C55.7935714,39.1201071 56.2273795,38.0726518 57.0150804,37.2849509 L59.7582321,34.5417991 C59.8684018,34.9459554 59.9198705,35.3708437 59.9025134,35.8052545 L59.2023214,53.0512634 C59.1820714,53.5501607 59.5700759,53.9709509 60.0688527,53.9913214 C60.5884821,53.9920446 60.9891429,53.6110312 61.0087902,53.1247902 L61.7092232,35.8782991 C61.8117991,33.3200491 60.2758125,30.9822589 57.8870357,30.0608839 Z M35.6293929,18.3622902 C35.4699241,17.4943125 34.666192,16.8634286 33.7986964,16.9276741 C33.7301116,16.9326161 33.6594777,16.9277946 33.5883616,16.9133304 C33.2289241,16.8398036 32.9578393,16.4604777 32.9578393,16.03125 L32.9578393,15.3820446 C32.9578393,14.9627009 33.2380848,14.584942 33.5957143,14.5221429 C33.8975357,14.4691071 34.1865804,14.5798795 34.369433,14.8184196 C34.5354107,15.0347812 34.7568348,15.1895491 35.0095982,15.2657277 C35.3798839,15.3775848 35.7881384,15.3118929 36.1020134,15.0903482 C36.6673259,14.6912545 37.1661027,14.2036875 37.5844821,13.6410268 C37.8824464,13.2403661 37.7990357,12.6740893 37.3984955,12.3762455 C36.9977143,12.0782812 36.431558,12.1615714 36.1335937,12.5622321 C35.9249464,12.8428393 35.6891786,13.0975312 35.4296652,13.322933 C35.1430312,13.0777634 34.808183,12.9005759 34.4493482,12.7994464 C34.2170759,11.9096518 33.8036384,10.0033795 33.8036384,7.70428125 C33.8036384,6.3196875 34.2304554,5.34684375 35.0721562,4.81287054 C35.7289554,4.39617857 36.4240848,4.37954464 36.4236027,4.37942411 C36.6546696,4.37942411 36.8795893,4.28841964 37.047375,4.12967411 C37.069433,4.10894196 39.29175,2.04657589 43.0975446,1.84082143 C46.5812679,1.65278571 49.2706607,2.53221429 50.8748705,4.38460714 C52.4917366,6.25170536 53.0301696,9.11816518 52.4460536,12.7059107 C52.2038973,12.6973527 51.9388393,12.7156741 51.6749866,12.7596696 L50.825692,10.7199643 C50.6523616,10.303875 50.1984241,10.0791964 49.7623259,10.1928616 C49.6783125,10.2147991 41.3298884,12.3311652 37.8294107,7.97307589 C37.5168616,7.58386607 36.947933,7.52166964 36.5584821,7.83433929 C36.1692723,8.14700893 36.1070759,8.7159375 36.4198661,9.10526786 C39.9944732,13.5556875 47.0872768,12.5875446 49.4483304,12.1154062 L50.1051295,13.6926161 C50.3875446,14.3706295 51.1100357,14.7409152 51.8221607,14.5730089 C52.1144598,14.504183 52.3937411,14.5026161 52.4986071,14.5233482 C52.864192,14.5961518 53.1398571,14.9607723 53.1398571,15.3717991 L53.1398571,16.0311295 C53.1398571,16.4604777 52.8687723,16.839683 52.5093348,16.9132098 C52.4383393,16.9277946 52.3673437,16.9326161 52.299,16.9275536 C51.431625,16.8643929 50.6278929,17.4940714 50.4683036,18.3622902 C49.8106607,21.942683 46.6903527,24.541433 43.0488482,24.541433 C39.4073437,24.541433 36.2870357,21.942683 35.6293929,18.3622902 Z M39.6397366,34.342433 C39.4104777,34.571692 39.1439732,34.5829018 39.0053571,34.5691607 C38.8668616,34.5555402 38.6075893,34.4921384 38.42775,34.2223795 L34.9087098,28.9438795 L36.3239196,27.5286696 L41.7263304,32.2558393 L39.6397366,34.342433 Z M42.1901518,35.5365804 L42.244875,34.2940982 L43.0487277,33.4902455 L43.8525804,34.2940982 L43.9073036,35.5365804 L42.1901518,35.5365804 Z M43.0488482,31.0104643 L38.0325134,26.6211562 L38.0325134,24.8909866 C39.4909955,25.8185089 41.2165848,26.3494687 43.0488482,26.3494687 C44.8811116,26.3494687 46.6068214,25.8185089 48.0653036,24.8909866 L48.0653036,26.6211562 L43.0488482,31.0104643 Z M47.6701875,34.2223795 C47.4902277,34.4922589 47.2309554,34.5555402 47.0925804,34.5691607 C46.9538437,34.5829018 46.6873393,34.571692 46.4580804,34.3423125 L44.3714866,32.2557187 L49.7738973,27.5285491 L51.1891071,28.9437589 L47.6701875,34.2223795 Z" id="Shape" fill="#404F54"></path>
                        <path d="M28.668817,34.7985402 L24.254558,32.8717768 L21.8415536,30.4587723 C21.6799152,30.2970134 21.4721116,30.2102277 21.2605714,30.1967277 L21.2605714,28.7745268 C23.322817,27.4193438 24.8319241,25.2640446 25.3168393,22.6957902 C25.5542946,22.7063973 25.7940402,22.6836161 26.0302902,22.627808 C27.1870714,22.3540714 28.0266027,21.2455045 28.0266027,19.991933 L28.0266027,19.3328438 C28.0266027,18.4170134 27.572183,17.5931518 26.8681339,17.1098036 C27.0752143,16.2894375 27.1808036,15.4501473 27.1808036,14.6053125 C27.1808036,10.8600268 25.1562857,7.56120536 22.104683,5.66710714 C22.0721384,2.54125446 19.4040804,0.00759375 16.127558,0.00759375 C12.8510357,0.00759375 10.1829777,2.54125446 10.150433,5.66710714 C7.09895089,7.56120536 5.07443304,10.8601473 5.07443304,14.6053125 C5.07443304,15.4476161 5.17929911,16.2844955 5.38517411,17.1025714 C4.68148661,17.5835089 4.22863393,18.4112277 4.22863393,19.3427277 L4.22863393,19.991933 C4.22863393,21.2455045 5.06816518,22.3540714 6.22494643,22.627808 C6.46119643,22.6837366 6.70082143,22.7063973 6.93839732,22.6957902 C7.4233125,25.2640446 8.93254018,27.4193438 10.9947857,28.7745268 L10.9947857,30.1967277 C10.7832455,30.2102277 10.575442,30.2970134 10.4138036,30.4587723 L8.00079911,32.8717768 L3.58666071,34.7985402 C1.34071875,35.7789777 -0.0984776786,38.0826563 0.00530357143,40.5310982 L0.53915625,53.1262366 C0.559767857,53.6119955 0.960066964,53.9920446 1.44172768,53.9920446 C1.97955804,53.9701071 2.36671875,53.5485938 2.345625,53.0496964 L1.81165179,40.4544375 C1.77729911,39.6428705 1.98823661,38.8554107 2.38479911,38.1776384 L4.75754464,41.024933 C5.50739732,41.9247321 5.92023214,43.0652411 5.92023214,44.2363661 L5.92023214,53.0880268 C5.92023214,53.5872857 6.32499107,53.9920446 6.82425,53.9920446 C7.32350893,53.9920446 7.72826786,53.5872857 7.72826786,53.0880268 L7.72826786,44.2363661 C7.72826786,42.643125 7.16645089,41.0915893 6.14647768,39.8675491 L3.62402679,36.8405357 C3.83845982,36.6927589 4.06639286,36.5618571 4.30999554,36.4555446 L8.15701339,34.7762411 L10.8755759,39.188933 C11.1440089,39.6246696 11.5878214,39.9201027 12.0933482,39.9996563 C12.1842321,40.014 12.2753571,40.0209911 12.3661205,40.0209911 C12.7794375,40.0209911 13.1820268,39.8745402 13.5012054,39.6021295 L15.2239018,38.1321964 L15.2239018,53.0879063 C15.2239018,53.5871652 15.6286607,53.9919241 16.1279196,53.9919241 C16.6271786,53.9919241 17.0319375,53.5871652 17.0319375,53.0879063 L17.0319375,38.1324375 L18.7545134,39.6023705 C19.073692,39.8747813 19.4762812,40.0212321 19.8895982,40.0212321 C19.9802411,40.0212321 20.0714866,40.0141205 20.1623705,39.9998973 C20.6678973,39.9203438 21.1117098,39.6249107 21.3801429,39.1891741 L24.0987054,34.7763616 L27.9457232,36.4556652 C28.1892054,36.5619777 28.4172589,36.6928795 28.631692,36.8406563 L26.1092411,39.8676696 C25.0892679,41.0915893 24.5274509,42.6432455 24.5274509,44.2364866 L24.5274509,53.0881473 C24.5274509,53.5874063 24.9322098,53.9921652 25.4314687,53.9921652 C25.9307277,53.9921652 26.3354866,53.5874063 26.3354866,53.0881473 L26.3354866,44.2364866 C26.3354866,43.0653616 26.748442,41.9248527 27.4981741,41.0250536 L29.8709196,38.1777589 C30.2674821,38.8555313 30.4784196,39.6429911 30.444067,40.454558 L29.9102143,53.049817 C29.8891205,53.5485938 30.2762812,53.9701071 30.7751786,53.9913214 C31.2957723,53.9921652 31.6960714,53.6122366 31.716683,53.1263571 L32.2505357,40.5312188 C32.3541964,38.0827768 30.9148795,35.7789777 28.668817,34.7985402 Z M16.1277991,1.81562946 C18.051067,1.81562946 19.6737187,3.0425625 20.1535714,4.70499107 C18.9055446,4.2339375 17.5475893,3.97490625 16.1277991,3.97490625 C14.7080089,3.97490625 13.3500536,4.2339375 12.1020268,4.70499107 C12.5818795,3.0425625 14.2044107,1.81562946 16.1277991,1.81562946 Z M8.70822321,22.3232143 C8.548875,21.4549955 7.74381696,20.8243527 6.87764732,20.8884777 C6.80086607,20.8939018 6.72155357,20.8873929 6.64151786,20.8683482 C6.29678571,20.7867455 6.03679018,20.4099509 6.03679018,19.991933 L6.03679018,19.3427277 C6.03679018,18.9233839 6.31703571,18.545625 6.67466518,18.4828259 C6.97648661,18.4297902 7.26541071,18.540683 7.44814286,18.7789821 C7.61412054,18.9954643 7.83554464,19.1502321 8.08854911,19.2266518 C8.45871429,19.3385089 8.86720982,19.272817 9.18084375,19.0511518 C9.73759821,18.6582054 10.2298661,18.1791964 10.6440268,17.627625 C10.9437991,17.2284107 10.8631607,16.6616518 10.4639464,16.362 C10.0646116,16.0622277 9.49797321,16.1428661 9.19820089,16.5420804 C8.99316964,16.8150938 8.76234375,17.0632768 8.50849554,17.2837366 C8.12169643,16.9529866 7.64738839,16.7459063 7.14427232,16.6831071 C6.9710625,16.0022009 6.88246875,15.3058661 6.88246875,14.605433 C6.88246875,9.74085268 11.0298616,5.7830625 16.1277991,5.7830625 C21.2256161,5.7830625 25.3730089,9.74073214 25.3730089,14.605433 C25.3730089,15.3045402 25.2848973,15.9994286 25.1122902,16.6791295 C24.8743527,16.6980536 24.632558,16.7369866 24.4087232,16.7950848 L23.7291429,16.2362813 C23.3876652,15.955433 22.9578348,15.8148884 22.5228214,15.8408036 C21.1940357,15.9192723 14.3888304,16.0989911 10.8973929,11.9205 C10.57725,11.5374375 10.0072366,11.4863304 9.62405357,11.8064732 C9.24087054,12.1266161 9.18988393,12.69675 9.51002679,13.0798125 C11.232,15.1406116 13.7575848,16.534125 17.0165089,17.2216607 C19.5117187,17.7480402 21.729817,17.696933 22.5988795,17.6473929 L23.6591116,18.5192277 C23.9509286,18.7592143 24.3601473,18.7930848 24.6869196,18.6028795 C24.8402411,18.5193482 25.3537232,18.4395536 25.5777991,18.4842723 C25.9433839,18.5569554 26.2189286,18.9216964 26.2189286,19.3328437 L26.2189286,19.991933 C26.2189286,20.4100714 25.958933,20.7868661 25.6142009,20.8683482 C25.5342857,20.8872723 25.4548527,20.8941429 25.3780714,20.8883571 C24.5123839,20.8254375 23.7068437,21.4549955 23.547375,22.3230937 C22.8897321,25.9036071 19.7694241,28.5023571 16.1279196,28.5023571 C12.4862946,28.5023571 9.36586607,25.9036071 8.70822321,22.3232143 Z M12.3792589,38.1828214 L9.66021429,33.7692857 L11.053125,32.376375 L14.7967232,36.1199732 L12.3792589,38.1828214 Z M16.1277991,34.8940045 L12.802942,31.5691473 L12.802942,29.6989152 C13.840875,30.0940313 14.9624598,30.3103929 16.1277991,30.3103929 C17.2931384,30.3103929 18.4147232,30.0940313 19.4526562,29.6990357 L19.4526562,31.5691473 L16.1277991,34.8940045 Z M19.8763393,38.1828214 L17.458875,36.1199732 L21.2024732,32.376375 L22.5953839,33.7692857 L19.8763393,38.1828214 Z" id="Shape" fill="#404F54"></path>
                        <path d="M12.7447232,43.7262589 L10.2074464,43.7262589 C9.7081875,43.7262589 9.30342857,44.1310179 9.30342857,44.6302768 C9.30342857,45.1295357 9.7081875,45.5342946 10.2074464,45.5342946 L12.7447232,45.5342946 C13.2439821,45.5342946 13.6487411,45.1295357 13.6487411,44.6302768 C13.6487411,44.1310179 13.2439821,43.7262589 12.7447232,43.7262589 Z" id="Shape" fill="#1CABA0"></path>
                    </g>
                </g>
                <circle id="Oval-9" fill="#FFFFFF" cx="60" cy="44" r="15"></circle>
                <circle id="Oval-9" stroke="#404F54" stroke-width="2" cx="60" cy="44" r="15"></circle>
                <path d="M68.1103651,43.0877206 L60.9685177,43.0877206 L60.9685177,35.9458732 C60.9685177,35.423499 60.5450187,35 60.0226445,35 C59.5002702,35 59.0767713,35.423499 59.0767713,35.9458732 L59.0767713,43.0877206 L52.9458732,43.0877206 C52.423499,43.0877206 52,43.5112195 52,44.0335938 C52,44.5560942 52.423499,44.979467 52.9458732,44.979467 L59.0767713,44.979467 L59.0767713,52.1213144 C59.0767713,52.6436886 59.5002702,53.0671876 60.0226445,53.0671876 C60.5450187,53.0671876 60.9685177,52.6436886 60.9685177,52.1213144 L60.9685177,44.979467 L68.1103651,44.979467 C68.6327393,44.979467 69.0562383,44.5560942 69.0562383,44.0335938 C69.0562383,43.5112195 68.6327393,43.0877206 68.1103651,43.0877206 Z" id="Shape" fill="#FF7F45" fill-rule="nonzero"></path>
            </g>
        </g>
    </g>
</svg>