<?xml version="1.0" encoding="UTF-8"?>
<svg width="144px" height="28px" viewBox="0 0 144 28" version="1.1" xmlns="http://www.w3.org/2000/svg" xmlns:xlink="http://www.w3.org/1999/xlink">
    <!-- Generator: Sketch 51.3 (57544) - http://www.bohemiancoding.com/sketch -->
    <title>Logo Copy</title>
    <desc>Created with Sketch.</desc>
    <defs></defs>
    <g id="🛠--Symbols-&amp;-Components" stroke="none" stroke-width="1" fill="none" fill-rule="evenodd">
        <g id="Atoms-/-Logo-/-Dark_background-/-Small" transform="translate(-7.000000, -21.000000)" fill="#FFFFFF">
            <path d="M143.352832,21 L150.044104,21 C150.572031,21 151,21.4470766 151,21.9985735 L151,28.9885877 C151,29.5400846 150.572031,29.9871612 150.044104,29.9871612 L143.352832,29.9871612 C142.824905,29.9871612 142.396936,29.5400846 142.396936,28.9885877 L142.396936,21.9985735 C142.396936,21.4470766 142.824905,21 143.352832,21 Z M145.264624,24.3572729 L146.551988,24.3572729 L146.551988,28.489301 L147.654364,28.489301 L147.654364,22.4978602 L146.759627,22.4978602 C146.759627,22.5501995 146.745785,22.6300846 146.718099,22.7375178 C146.670279,22.9165733 146.599808,23.0598155 146.506685,23.1672488 C146.370775,23.3242666 146.194598,23.4289436 145.978148,23.4812829 C145.842238,23.5143393 145.604399,23.5391312 145.264624,23.5556594 L145.264624,24.3572729 Z M7,48.4607703 L7,29.4259629 L20.4723985,29.4259629 L20.4723985,33.1196862 L11.5424179,33.1196862 L11.5424179,36.5707561 L19.8787871,36.5707561 L19.8787871,40.1835949 L11.5424179,40.1835949 L11.5424179,44.7131241 L21.2724835,44.7131241 L21.2724835,48.4607703 L7,48.4607703 Z M23.6727384,48.4607703 L23.6727384,29.3990014 L28.2151563,29.3990014 L28.2151563,44.4435093 L35.3384934,44.4435093 L35.3384934,48.4607703 L23.6727384,48.4607703 Z M37.6613207,48.4607703 L37.6613207,29.4259629 L51.1337192,29.4259629 L51.1337192,33.1196862 L42.2037386,33.1196862 L42.2037386,36.5707561 L50.5401078,36.5707561 L50.5401078,40.1835949 L42.2037386,40.1835949 L42.2037386,44.7131241 L51.9338042,44.7131241 L51.9338042,48.4607703 L37.6613207,48.4607703 Z M67.8322668,29.4259629 L74.4652293,29.4259629 L74.4652293,48.4607703 L70.1034757,48.4607703 L70.3873769,34.8991441 L70.4389952,32.9848787 L70.2841401,33.6589158 C70.0518574,34.7373752 70.0260482,34.8721826 69.8195746,35.6810271 L66.386952,48.4607703 L62.4639548,48.4607703 L59.1603781,36.2202568 L58.3602931,32.8231098 C58.4377207,34.3329529 58.4377207,34.6564907 58.5151483,36.4629101 L58.747431,48.4607703 L54.3340591,48.4607703 L54.3340591,29.4259629 L60.9928308,29.4259629 L63.7802236,40.1027104 L64.4254534,43.1493581 C64.6835453,41.8282454 64.7093545,41.6934379 64.915828,40.803709 L67.8322668,29.4259629 Z M78.0010887,48.4607703 L78.0010887,29.4259629 L91.4734872,29.4259629 L91.4734872,33.1196862 L82.5435065,33.1196862 L82.5435065,36.5707561 L90.8798757,36.5707561 L90.8798757,40.1835949 L82.5435065,40.1835949 L82.5435065,44.7131241 L92.2735721,44.7131241 L92.2735721,48.4607703 L78.0010887,48.4607703 Z M94.6480178,48.4607703 L94.6480178,29.4259629 L99.1130082,29.4259629 L103.061815,36.4359486 C104.507129,39.1051355 104.945886,39.967903 105.797589,41.639515 L105.591115,29.4259629 L109.952869,29.4259629 L109.952869,48.4607703 L105.487879,48.4607703 L102.081065,42.4483595 C100.429277,39.6174037 100.119567,39.0242511 98.8807254,36.4898716 L99.0097714,48.4607703 L94.6480178,48.4607703 Z M111.914368,33.1736091 L111.914368,29.3990014 L125.954568,29.3990014 L125.954568,33.1736091 L121.231486,33.1736091 L121.231486,48.4607703 L116.663259,48.4607703 L116.663259,33.1736091 L111.914368,33.1736091 Z M142.111123,47.0048502 C140.330289,48.5416548 138.265553,49 136.381482,49 C130.600223,49 127.322456,44.3626248 127.322456,38.8624822 C127.322456,33.7128388 130.445368,28.8328103 136.304055,28.8328103 C137.388041,28.8328103 138.523645,28.9945792 139.63344,29.3990014 C145.208226,31.4211127 145.569555,37.7570613 145.569555,39.0512126 C145.569555,42.3405136 144.12424,45.3062767 142.111123,47.0048502 Z M141.001328,39.3747504 C141.078755,37.3796006 140.562571,35.3574893 139.530204,34.1981455 C138.755928,33.335378 137.568705,32.7961484 136.329864,32.7961484 C133.56828,32.7961484 131.813255,35.3305278 131.813255,38.7815977 C131.813255,43.311127 134.239319,44.9827389 136.381482,44.9827389 C138.549454,44.9827389 140.872282,43.3650499 141.001328,39.3747504 Z" id="Logo-Copy"></path>
        </g>
    </g>
</svg>